<svg xmlns="http://www.w3.org/2000/svg" width="1200" height="520" viewBox="0 0 1200 520" role="img" aria-labelledby="title desc">
  <title id="title">3D Unity Pipeline Map</title>
  <desc id="desc">Map from dataset review to Unity handoff.</desc>
  <rect width="1200" height="520" fill="#f7f9fb"/>
  <rect x="32" y="32" width="1136" height="456" rx="16" fill="#ffffff" stroke="#d8e0ea"/>
  <text x="70" y="88" font-family="Arial, sans-serif" font-size="34" font-weight="700" fill="#172033">3D / Unity asset pipeline</text>
  <text x="70" y="122" font-family="Arial, sans-serif" font-size="16" fill="#526070">Readable view: source decision, Splat Face route, Unity checklist, and next action.</text>
  <g font-family="Arial, sans-serif">
    <rect x="70" y="180" width="175" height="122" rx="12" fill="#e9f2ff" stroke="#9bc3ff"/>
    <text x="94" y="222" font-size="20" font-weight="700" fill="#173a66">DatasetViewEval</text>
    <text x="94" y="252" font-size="14" fill="#31516f">Review, score, export</text>
    <text x="94" y="276" font-size="14" fill="#31516f">JSON / CSV / MD</text>
    <path d="M250 241 L315 241" stroke="#6b7788" stroke-width="3" marker-end="url(#arrow)"/>
    <rect x="330" y="180" width="175" height="122" rx="12" fill="#eaf8f0" stroke="#93d3aa"/>
    <text x="360" y="222" font-size="20" font-weight="700" fill="#19562f">Splat Face</text>
    <text x="360" y="252" font-size="14" fill="#31513b">Depth-card baker</text>
    <text x="360" y="276" font-size="14" fill="#31513b">2.5D asset prep</text>
    <path d="M510 241 L575 241" stroke="#6b7788" stroke-width="3" marker-end="url(#arrow)"/>
    <rect x="590" y="180" width="175" height="122" rx="12" fill="#fff4df" stroke="#f1bf62"/>
    <text x="624" y="222" font-size="20" font-weight="700" fill="#684509">CodexToUnity</text>
    <text x="624" y="252" font-size="14" fill="#6f5526">Jobs, manifests</text>
    <text x="624" y="276" font-size="14" fill="#6f5526">Unity bridge</text>
    <path d="M770 241 L835 241" stroke="#6b7788" stroke-width="3" marker-end="url(#arrow)"/>
    <rect x="850" y="180" width="175" height="122" rx="12" fill="#f0ebff" stroke="#b6a7ef"/>
    <text x="888" y="222" font-size="20" font-weight="700" fill="#3e2d6f">Mob'ia</text>
    <text x="888" y="252" font-size="14" fill="#56477d">Profiles, jobs</text>
    <text x="888" y="276" font-size="14" fill="#56477d">Product layer</text>
    <path d="M938 306 L938 356" stroke="#6b7788" stroke-width="3" marker-end="url(#arrow)"/>
    <rect x="750" y="370" width="375" height="72" rx="12" fill="#172033"/>
    <text x="790" y="414" font-size="20" font-weight="700" fill="#ffffff">Unity handoff: scene, prefab, QA checklist</text>
  </g>
  <defs>
    <marker id="arrow" viewBox="0 0 10 10" refX="9" refY="5" markerWidth="8" markerHeight="8" orient="auto-start-reverse">
      <path d="M 0 0 L 10 5 L 0 10 z" fill="#6b7788"/>
    </marker>
  </defs>
</svg>
