<svg xmlns="http://www.w3.org/2000/svg" width="1200" height="675" viewBox="0 0 1200 675" role="img" aria-labelledby="title desc">
  <title id="title">3D Unity proof dashboard</title>
  <desc id="desc">Public-safe proof status dashboard for the 3D Unity showcase.</desc>
  <rect width="1200" height="675" fill="#0f1419"/>
  <rect x="52" y="48" width="1096" height="579" rx="18" fill="#151c24" stroke="#6ee7b7" stroke-width="3"/>
  <text x="84" y="112" fill="#f8fafc" font-family="Segoe UI, Arial, sans-serif" font-size="38" font-weight="700">3D / Unity Proof Dashboard</text>
  <text x="84" y="150" fill="#a7b7c8" font-family="Segoe UI, Arial, sans-serif" font-size="21">Dataset readiness · pre-MVP scaffold · experimental prototype · private summaries</text>
  <g font-family="Segoe UI, Arial, sans-serif">
    <rect x="84" y="210" width="250" height="132" rx="12" fill="#20313a"/>
    <text x="110" y="252" fill="#ffffff" font-size="23" font-weight="700">Publication-ready</text>
    <text x="110" y="288" fill="#cbd5e1" font-size="18">DatasetViewEval</text>
    <text x="110" y="318" fill="#6ee7b7" font-size="17">desktop local proof</text>
    <rect x="360" y="210" width="250" height="132" rx="12" fill="#26313b"/>
    <text x="386" y="252" fill="#ffffff" font-size="23" font-weight="700">Pre-MVP</text>
    <text x="386" y="288" fill="#cbd5e1" font-size="18">Splat Facade Baker</text>
    <text x="386" y="318" fill="#facc15" font-size="17">native tools pending</text>
    <rect x="636" y="210" width="250" height="132" rx="12" fill="#2b2933"/>
    <text x="662" y="252" fill="#ffffff" font-size="23" font-weight="700">Prototype</text>
    <text x="662" y="288" fill="#cbd5e1" font-size="18">CodexToUnity</text>
    <text x="662" y="318" fill="#facc15" font-size="17">prototype scope</text>
    <rect x="912" y="210" width="205" height="132" rx="12" fill="#2a2634"/>
    <text x="938" y="252" fill="#ffffff" font-size="23" font-weight="700">Private</text>
    <text x="938" y="288" fill="#cbd5e1" font-size="18">Mob'ia</text>
    <text x="938" y="318" fill="#93c5fd" font-size="17">product map</text>
    <rect x="84" y="430" width="1032" height="108" rx="12" fill="#1d2730" stroke="#334756"/>
    <text x="110" y="472" fill="#ffffff" font-size="23" font-weight="700">Next proof focus</text>
    <text x="110" y="510" fill="#cbd5e1" font-size="20">Unity import summary · ComfyUI demo scope · Blender GLB review · mesh/material checklist.</text>
    <text x="84" y="590" fill="#a7b7c8" font-size="19">No datasets, workflows, generated assets, GLB files, endpoints, logs or private screenshots.</text>
  </g>
</svg>
